<svg xmlns="http://www.w3.org/2000/svg" viewBox="0 0 605.3 620"><defs><style>.cls-1{fill:#3fa9f5;}</style></defs><title>Artboard 18</title><g id="drum"><path class="cls-1" d="M309.19,362.17V375.9c0,5,7.77,5,7.77,0V362.17c0-5-7.77-5-7.77,0Z"/><path class="cls-1" d="M287.59,361.53V375.9c0,5,7.77,5,7.77,0V361.53c0-5-7.77-5-7.77,0Z"/><path class="cls-1" d="M317,362.17V147a3.94,3.94,0,0,0-3.89-3.89H299.26a3.94,3.94,0,0,0-3.89,3.89v49.44c0,3.07.2,6.23,0,9.3-.4,6.11-3.54,8.39-6.64,12.8-1.71,2.43-1.14,5.7-1.14,8.57V361.53c0,5,7.77,5,7.77,0v-132c0-.56.2-8.18,0-8.21,4.45.67-3.3,3.63-.33,2a7.52,7.52,0,0,0,1.21-1.21,27.18,27.18,0,0,0,4.35-6.16c2.22-4.36,2.55-8.79,2.55-13.57V147l-3.89,3.89h13.82L309.19,147V362.17c0,5,7.77,5,7.77,0Z"/><path class="cls-1" d="M290.45,357.78c-31.32,4.84-57.41,27-65.74,57.88s2,64.88,27,85.1a81.61,81.61,0,0,0,88.18,8.92c28.16-14.6,45.6-45.61,43.3-77.26a81.68,81.68,0,0,0-66.53-74c-4.89-.9-7,6.6-2.07,7.5,29.29,5.37,53.07,27.41,59.42,56.74a73.06,73.06,0,0,1-109.28,77.81c-25.32-15.34-38.75-45-34.38-74.13,4.84-32.39,30.15-56.12,62.13-61.06,4.93-.76,2.84-8.25-2.07-7.5Z"/><path class="cls-1" d="M313,502.34c26-4.74,47.43-24.86,52.9-50.87A65.67,65.67,0,1,0,236.48,445c3.32,29.2,26.14,52.79,55.05,57.52,4.89.8,7-6.69,2.07-7.5-22.72-3.72-41.72-19.79-47.78-42.25A57.91,57.91,0,1,1,359.5,441.4c-1.61,27-22.32,48.65-48.54,53.44-4.91.9-2.83,8.39,2.07,7.5Z"/><path class="cls-1" d="M308.11,498.59v15c0,5,7.77,5,7.77,0v-15c0-5-7.77-5-7.77,0Z"/><path class="cls-1" d="M288.67,498.78v15.09c0,5,7.77,5,7.77,0V498.78c0-5-7.77-5-7.77,0Z"/><path class="cls-1" d="M315.89,498.59V484.52a3.94,3.94,0,0,0-3.89-3.89H292.56a3.94,3.94,0,0,0-3.89,3.89v14.26c0,5,7.77,5,7.77,0V484.52l-3.89,3.89H312l-3.89-3.89v14.07c0,5,7.77,5,7.77,0Z"/><path class="cls-1" d="M290.94,470.59h22.68c5,0,5-7.77,0-7.77H290.94c-5,0-5,7.77,0,7.77Z"/><path class="cls-1" d="M319.12,143.09h-25L298,147V85.22l-3.89,3.89h25l-3.89-3.89V147c0,5,7.77,5,7.77,0V85.22a3.94,3.94,0,0,0-3.89-3.89h-25a3.94,3.94,0,0,0-3.89,3.89V147a3.94,3.94,0,0,0,3.89,3.89h25C324.13,150.87,324.14,143.09,319.12,143.09Z"/><path class="cls-1" d="M319.12,103.57h8.27c5,0,5-7.77,0-7.77h-8.27c-5,0-5,7.77,0,7.77Z"/><path class="cls-1" d="M319.5,125h10.06c5,0,5-7.77,0-7.77H319.5c-5,0-5,7.77,0,7.77Z"/><path class="cls-1" d="M335.82,121.06a1.19,1.19,0,0,1-2.38,0,1.19,1.19,0,0,1,2.38,0c.27,5,8,5,7.77,0-.26-4.85-3.9-9-9-9a9,9,0,0,0-.28,17.91c5.17.18,9-4,9.24-8.95S336.09,116.08,335.82,121.06Z"/><path class="cls-1" d="M335.82,99a1.19,1.19,0,0,1-2.38,0,1.19,1.19,0,0,1,2.38,0c.27,5,8,5,7.77,0-.26-4.85-3.9-9-9-9a9,9,0,0,0-.28,17.91c5.17.18,9-4,9.24-8.95S336.09,94.05,335.82,99Z"/><path class="cls-1" d="M294.11,103.85H283.78c-5,0-5,7.77,0,7.77h10.33c5,0,5-7.77,0-7.77Z"/><path class="cls-1" d="M293.14,127.39h-9.35c-5,0-5,7.77,0,7.77h9.35c5,0,5-7.77,0-7.77Z"/><path class="cls-1" d="M280.33,131.81a1.19,1.19,0,0,1-2.38,0,1.19,1.19,0,0,1,2.38,0c.27,5,8,5,7.77,0-.26-4.85-3.9-9-9-9a9,9,0,0,0-.28,17.91c5.17.18,9-4,9.24-8.95S280.6,126.83,280.33,131.81Z"/><path class="cls-1" d="M280.33,108.16a1.19,1.19,0,0,1-2.38,0,1.19,1.19,0,0,1,2.38,0c.27,5,8,5,7.77,0-.26-4.85-3.9-9-9-9a9,9,0,0,0-.28,17.91c5.17.18,9-4,9.24-8.95S280.6,103.18,280.33,108.16Z"/><path class="cls-1" d="M326.79,494.49l3.45,6.06a3.89,3.89,0,0,0,6.71-3.92l-3.45-6.06a3.89,3.89,0,1,0-6.71,3.92Z"/><path class="cls-1" d="M341.4,485.3l4.77,5.42a3.91,3.91,0,0,0,5.5,0,4,4,0,0,0,0-5.5l-4.77-5.42a3.91,3.91,0,0,0-5.5,0,4,4,0,0,0,0,5.5Z"/><path class="cls-1" d="M352.05,472l5.14,4c1.6,1.24,4,1.68,5.5,0,1.28-1.39,1.72-4.17,0-5.5l-5.14-4c-1.6-1.24-4-1.68-5.5,0-1.28,1.39-1.72,4.17,0,5.5Z"/><path class="cls-1" d="M359.41,457.14l5.69,2.67c1.84.86,4.28.58,5.32-1.39.91-1.72.57-4.4-1.39-5.32l-5.69-2.67c-1.84-.86-4.28-.58-5.32,1.39-.91,1.72-.57,4.4,1.39,5.32Z"/><path class="cls-1" d="M363.5,441.57l6.16.54a3.9,3.9,0,0,0,3.89-3.89,4,4,0,0,0-3.89-3.89l-6.16-.54a3.9,3.9,0,0,0-3.89,3.89,4,4,0,0,0,3.89,3.89Z"/><path class="cls-1" d="M363.59,425.91l5.44-2.38c1.87-.82,2.44-3.69,1.39-5.32a4,4,0,0,0-5.32-1.39l-5.44,2.38c-1.87.82-2.44,3.69-1.39,5.32a4,4,0,0,0,5.32,1.39Z"/><path class="cls-1" d="M357.23,410.22l4.89-3.1a3.89,3.89,0,0,0-3.92-6.71l-4.89,3.1a3.89,3.89,0,0,0,3.92,6.71Z"/><path class="cls-1" d="M347.88,396.48l4.87-3.8c1.61-1.26,1.42-4.2,0-5.5-1.71-1.57-3.78-1.34-5.5,0l-4.87,3.8c-1.61,1.26-1.42,4.2,0,5.5,1.71,1.57,3.78,1.34,5.5,0Z"/><path class="cls-1" d="M334.92,385.54l3.33-5.09a3.92,3.92,0,0,0-1.39-5.32,4,4,0,0,0-5.32,1.39l-3.33,5.09a3.92,3.92,0,0,0,1.39,5.32,4,4,0,0,0,5.32-1.39Z"/><path class="cls-1" d="M324.79,380l2.18-5.25c.78-1.88-.84-4.36-2.71-4.78-2.27-.52-3.94.7-4.78,2.71L317.3,378c-.78,1.88.84,4.36,2.71,4.78,2.27.52,3.94-.7,4.78-2.71Z"/><path class="cls-1" d="M287.71,377.45l-1.77-5.83a3.89,3.89,0,1,0-7.5,2.07l1.77,5.83a3.89,3.89,0,0,0,7.5-2.07Z"/><path class="cls-1" d="M274,382.33,270.22,377c-1.17-1.66-3.45-2.6-5.32-1.39-1.65,1.06-2.65,3.54-1.39,5.32l3.75,5.31c1.17,1.66,3.45,2.6,5.32,1.39,1.65-1.06,2.65-3.54,1.39-5.32Z"/><path class="cls-1" d="M260.26,390.37l-5-3.8c-1.63-1.23-4.42-.31-5.32,1.39a4,4,0,0,0,1.39,5.32l5,3.8c1.63,1.23,4.42.31,5.32-1.39a4,4,0,0,0-1.39-5.32Z"/><path class="cls-1" d="M279.32,495.55,278,501.41a3.89,3.89,0,0,0,7.5,2.07l1.31-5.86a3.89,3.89,0,1,0-7.5-2.07Z"/><path class="cls-1" d="M268.43,507.11l8.19-12.61c2.73-4.21-4-8.11-6.71-3.92l-8.19,12.61c-2.73,4.21,4,8.11,6.71,3.92Z"/></g></svg>