<svg xmlns="http://www.w3.org/2000/svg" viewBox="0 0 689.84 620"><defs><style>.cls-1{fill:#fbb03b;}</style></defs><title>Artboard 17</title><g id="drum"><path class="cls-1" d="M485.33,304c-.25,13-16.4,20.93-26.49,25.4-20.67,9.15-43.76,13.38-66.09,15.88a408.74,408.74,0,0,1-81.88.83c-23.23-2.09-46.84-6-68.7-14.39-11-4.23-28.33-11.42-31.7-24.31-3.24-12.37,11.15-21.33,20.26-26,18.4-9.53,39.54-14,59.88-17.08a395.84,395.84,0,0,1,83.68-3.18c26.24,1.67,53.05,5.5,77.79,14.75,11.63,4.35,33,12.94,33.27,28.14.07,3.71,5.84,3.72,5.77,0-.27-14.17-14.58-23.29-25.91-28.78-20.75-10.06-44.07-14.66-66.79-17.58a404,404,0,0,0-90.88-1.2c-24.11,2.38-48.75,6.59-71.2,16-12,5.06-28.61,13.28-31.64,27.5-2.89,13.52,9.16,23.72,19.6,29.75,19.06,11,41.7,16,63.22,19.35a401.65,401.65,0,0,0,89.34,3.45c25.31-1.77,51.09-5.52,75.05-14.16,13.49-4.86,31.23-12.21,37.44-26.35a20.64,20.64,0,0,0,1.76-8C491.17,300.3,485.4,300.3,485.33,304Z"/><path class="cls-1" d="M485.33,304V396.6a10.56,10.56,0,0,0,0,2.24c.32,1.32-.46.23.39-.65-.28.29-.4.77-.64,1.09a61.74,61.74,0,0,1-5.15,6.25c-9.67,9.87-22.45,16.6-35.23,21.5-26.4,10.12-55.1,13.58-83.19,14.47-32.08,1-65-.75-96.06-9.57-15.86-4.51-31.95-11-44.79-21.61a58.94,58.94,0,0,1-8.82-8.81,28.89,28.89,0,0,0-2.22-3.33c1.28,1.33.12,1.9.39.75a11.24,11.24,0,0,0,0-2.34V304c0-3.71-5.77-3.72-5.77,0,0,31.28-.51,62.61,0,93.88.08,4.95,4.15,8.77,7.5,12.12,10.26,10.26,23.55,17.23,37,22.41,26.7,10.33,55.88,13.86,84.31,14.81,32.67,1.1,66.3-.71,97.92-9.6,16.84-4.73,33.57-11.68,47.27-22.77,4.3-3.48,10.34-8.4,12.5-13.75,1.24-3.08.41-7.6.41-10.83V304c0-3.71-5.77-3.72-5.77,0Z"/><path class="cls-1" d="M223.66,327.66V353c0,3.71,5.77,3.72,5.77,0V327.66c0-3.71-5.77-3.72-5.77,0Z"/><path class="cls-1" d="M293.65,347.43V374.3c0,3.71,5.77,3.72,5.77,0V347.43c0-3.71-5.77-3.72-5.77,0Z"/><path class="cls-1" d="M395.92,347.43V374.3c0,3.71,5.77,3.72,5.77,0V347.43c0-3.71-5.77-3.72-5.77,0Z"/><path class="cls-1" d="M466.55,329v23.06c0,3.71,5.77,3.72,5.77,0V329c0-3.71-5.77-3.72-5.77,0Z"/><path class="cls-1" d="M472.31,415.75V403.47c0-3.71-5.77-3.72-5.77,0v12.27c0,3.71,5.77,3.72,5.77,0Z"/><path class="cls-1" d="M405.21,440.78V424.62c0-3.71-5.77-3.72-5.77,0v16.17c0,3.71,5.77,3.72,5.77,0Z"/><path class="cls-1" d="M299.41,441.3V424.62c0-3.71-5.77-3.72-5.77,0V441.3c0,3.71,5.77,3.72,5.77,0Z"/><path class="cls-1" d="M229.43,418.15V403.47c0-3.71-5.77-3.72-5.77,0v14.68c0,3.71,5.77,3.72,5.77,0Z"/><path class="cls-1" d="M229.43,358.79c-.2,3.7-5.77,3.73-5.77,0s5.57-3.7,5.77,0,6,3.71,5.77,0c-.25-4.68-3.76-8.65-8.65-8.65a8.64,8.64,0,0,0-.31,17.28c5,.21,8.71-3.84,9-8.63C235.4,355.08,229.63,355.09,229.43,358.79Z"/><path class="cls-1" d="M299.41,380.07c-.2,3.7-5.77,3.73-5.77,0s5.57-3.7,5.77,0,6,3.71,5.77,0c-.25-4.68-3.76-8.65-8.65-8.65a8.64,8.64,0,0,0-.31,17.28c5,.21,8.71-3.84,9-8.63C305.38,376.36,299.61,376.37,299.41,380.07Z"/><path class="cls-1" d="M401.69,380.07c-.2,3.7-5.77,3.73-5.77,0s5.57-3.7,5.77,0,6,3.71,5.77,0c-.25-4.68-3.76-8.65-8.65-8.65a8.64,8.64,0,0,0-.31,17.28c5,.21,8.71-3.84,9-8.63C407.65,376.36,401.88,376.37,401.69,380.07Z"/><path class="cls-1" d="M472.31,358.31c-.2,3.7-5.77,3.73-5.77,0s5.57-3.7,5.77,0,6,3.71,5.77,0c-.25-4.68-3.76-8.65-8.65-8.65a8.64,8.64,0,0,0-.31,17.28c5,.21,8.71-3.84,9-8.63C478.28,354.6,472.51,354.61,472.31,358.31Z"/><path class="cls-1" d="M472.31,397.23c-.2,3.7-5.77,3.73-5.77,0s5.57-3.7,5.77,0,6,3.71,5.77,0c-.25-4.68-3.76-8.65-8.65-8.65a8.64,8.64,0,0,0-.31,17.28c5,.21,8.71-3.84,9-8.63C478.28,393.52,472.51,393.53,472.31,397.23Z"/><path class="cls-1" d="M405.21,418.15c-.2,3.7-5.77,3.73-5.77,0s5.57-3.7,5.77,0,6,3.71,5.77,0c-.25-4.68-3.76-8.65-8.65-8.65a8.64,8.64,0,0,0-.31,17.28c5,.21,8.71-3.84,9-8.63C411.17,414.45,405.4,414.46,405.21,418.15Z"/><path class="cls-1" d="M299.41,418.15c-.2,3.7-5.77,3.73-5.77,0s5.57-3.7,5.77,0,6,3.71,5.77,0c-.25-4.68-3.76-8.65-8.65-8.65a8.64,8.64,0,0,0-.31,17.28c5,.21,8.71-3.84,9-8.63C305.38,414.45,299.61,414.46,299.41,418.15Z"/><path class="cls-1" d="M229.43,397.23c-.2,3.7-5.77,3.73-5.77,0s5.57-3.7,5.77,0,6,3.71,5.77,0c-.25-4.68-3.76-8.65-8.65-8.65a8.64,8.64,0,0,0-.31,17.28c5,.21,8.71-3.84,9-8.63C235.4,393.52,229.63,393.53,229.43,397.23Z"/><path class="cls-1" d="M199.31,175.51l45.34,45.34,72.69,72.69L334,310.19c2.63,2.63,6.71-1.45,4.08-4.08l-45.34-45.34-72.69-72.69-16.66-16.66c-2.63-2.63-6.71,1.45-4.08,4.08Z"/><path class="cls-1" d="M359.24,289.55l44.21-44.21L474,174.77l16.34-16.34c2.63-2.63-1.45-6.71-4.08-4.08l-44.21,44.21L371.5,269.13l-16.34,16.34c-2.63,2.63,1.45,6.71,4.08,4.08Z"/><path class="cls-1" d="M342,312.8c-.2,3.7-5.77,3.73-5.77,0s5.57-3.7,5.77,0,6,3.71,5.77,0c-.25-4.68-3.76-8.65-8.65-8.65a8.64,8.64,0,0,0-.31,17.28c5,.21,8.71-3.84,9-8.63C348,309.09,342.23,309.1,342,312.8Z"/><path class="cls-1" d="M356.32,291.35c-.2,3.7-5.77,3.73-5.77,0s5.57-3.7,5.77,0,6,3.71,5.77,0c-.25-4.68-3.76-8.65-8.65-8.65a8.64,8.64,0,0,0-.31,17.28c5,.21,8.71-3.84,9-8.63C362.28,287.65,356.51,287.66,356.32,291.35Z"/></g></svg>