<svg xmlns="http://www.w3.org/2000/svg" viewBox="0 0 689.84 620"><defs><style>.cls-1{fill:#ed1e79;}</style></defs><title>Artboard 17 copy 3</title><g id="drum"><path class="cls-1" d="M345.54,159.66v194c0,4,.07,8,0,12a15.11,15.11,0,0,1-.21,3.34c-.92,3.9-5.1,7.11-9.16,5.84-4.34-1.35-5.78-6.91-6.79-10.76-1.74-6.67-1.61-13.19-2.24-20-.36-3.94-1.65-7.41-5.07-9.66-10.24-6.74-17.12,8.09-19.65,15.71-4.32,13-2.33,24.57,1,37.55,2.33,9.17,6.09,18.7,6.26,28.24.44,24.28-19.33,43.68-22.1,67.24-2.66,22.6,12.74,44.45,33.5,52.71,11.35,4.52,23.72,6.75,35.74,8.68,10.63,1.71,21.62,3.44,32.42,3.35,16.66-.14,37.91-5.06,42-23.87,2.93-13.44-2-27.92-8.58-39.55-5.22-9.28-14.94-19.39-14.54-30.71.12-3.5,1.47-6.84,2.51-10.14,1.54-4.85,3.1-9.7,4.54-14.58,2.34-8,4.67-16.31,4.85-24.68.18-8.06-4.39-23.86-14.81-23.13-4.94.35-6.36,5.72-7.68,9.74-1.58,4.78-2.71,11-6.35,14.8-3.35,3.48-10.53,1.28-12.8-2.64-2.7-4.65-2-11.59-2.08-16.71-.25-35.55-1.46-71.12-2.29-106.66q-.84-35.75-1.7-71.49c-.37-15.5-1.24-31.08-1.11-46.58,0-3.85,1.56-5.93,4-8.7a19.49,19.49,0,0,0,4.71-10.34c.93-6.94-2.27-14.54-4-21.18-.89-3.39-1.78-6.77-2.72-10.14-.56-2-1.88-4.62-1.33-6.6.44-1.59,2.24-3.07,3.1-4.51A19.92,19.92,0,0,0,377,95.46a24.6,24.6,0,0,0,.69-9.79c-1.54-11.36-13.8-18.19-22.68-9.42-4.62,4.57-6.61,11.53-7.93,17.68-1.62,7.6-3,15.24-4.66,22.84s-3.91,15.2-5,22.87a18.93,18.93,0,0,0,1,9.44,18.11,18.11,0,0,0,2.56,4.64c1.33,1.76,4.31,3.65,4.6,5.94.49,3.78,6.5,3.82,6,0-.43-3.29-1.78-5.24-4-7.63-3.8-4-4.87-8.12-3.79-13.55,1.55-7.74,3.48-15.41,5.13-23.13,1.59-7.39,2.74-14.92,4.56-22.25,1.27-5.1,3.32-12.65,9-14.6,7.76-2.68,10.11,8,9.22,13.56-.73,4.5-4.06,6.58-5.63,10.5-.87,2.17-.44,4,.18,6.13,1.79,6.2,3.43,12.44,5.06,18.69,2.24,8.61,4.89,15.68-1.83,23-5.51,6-4.15,13.91-4,21.39q.28,11.82.56,23.64.79,32.86,1.57,65.73c.93,39.35,2,78.7,2.64,118.06.22,13.22-1.59,35.85,17.93,34.39,11.16-.83,12.9-15.62,16.13-23.68.7-1.73.68-3.19,2.34-2.63,2.13.71,3.39,3.56,4.41,5.37,4.07,7.21,3.24,14.72,1.57,22.59-1.87,8.82-4.73,17.41-7.46,26-1.87,5.87-3.68,11.31-2.62,17.51,1.85,10.73,9.78,19.58,15,28.82,6.32,11.22,12.56,27.95,6.07,40.38-4.41,8.44-14.06,11.54-22.87,12.92-19.23,3-39.74-1-58.5-5.11-10-2.2-20.11-4.65-28.44-10.78-9-6.62-16.6-15.62-19.37-26.64-4.37-17.45,5.08-32.58,11.81-47.95,4-9.11,8.09-18.68,9.25-28.66,2.1-18-8.29-35.06-9.78-52.81-.52-6.16.92-12.56,3-18.33,1.11-3.1,4.48-12.67,9-11.76,4.34.87,3.6,7.65,3.71,10.69.26,7.38,1.22,15.08,4.12,21.92,2,4.82,5.74,9,11.22,9.56a13.64,13.64,0,0,0,13.87-8.8c1.17-3.06,1-6.24,1-9.44V159.66C351.54,155.8,345.54,155.8,345.54,159.66Z"/><path class="cls-1" d="M345.6,456.51h30.34c3.86,0,3.87-6,0-6H345.6c-3.86,0-3.87,6,0,6Z"/><path class="cls-1" d="M376.12,494.91H345.41l3,3V481.37l-3,3h30.71l-3-3v16.54c0,3.86,6,3.87,6,0V481.37a3,3,0,0,0-3-3H345.41a3,3,0,0,0-3,3v16.54a3,3,0,0,0,3,3h30.71C380,500.91,380,494.91,376.12,494.91Z"/><path class="cls-1" d="M376.18,130.44h8c3.86,0,3.87-6,0-6h-8c-3.86,0-3.87,6,0,6Z"/><path class="cls-1" d="M380.78,127.9a7.32,7.32,0,1,0,7.56-7.31,7.46,7.46,0,0,0-7.56,7.31c-.21,3.86,5.79,3.85,6,0a1.32,1.32,0,0,1,2.64,0,1.32,1.32,0,0,1-2.64,0C386.57,124.06,380.57,124,380.78,127.9Z"/><path class="cls-1" d="M352.58,80.9h-8.79c-3.86,0-3.87,6,0,6h8.79c3.86,0,3.87-6,0-6Z"/><path class="cls-1" d="M341.16,84.26a1.32,1.32,0,0,1-2.64,0,1.32,1.32,0,0,1,2.64,0c.21,3.84,6.21,3.86,6,0a7.32,7.32,0,1,0-7.56,7.31,7.46,7.46,0,0,0,7.56-7.31C347.36,80.4,341.36,80.41,341.16,84.26Z"/><path class="cls-1" d="M347.28,99.66h-8c-3.86,0-3.87,6,0,6h8c3.86,0,3.87-6,0-6Z"/><path class="cls-1" d="M336.68,103.12a1.32,1.32,0,0,1-2.64,0,1.32,1.32,0,0,1,2.64,0c.21,3.84,6.21,3.86,6,0a7.32,7.32,0,1,0-7.56,7.31,7.46,7.46,0,0,0,7.56-7.31C342.89,99.26,336.89,99.27,336.68,103.12Z"/><path class="cls-1" d="M343.42,117.73h-8c-3.86,0-3.87,6,0,6h8c3.86,0,3.87-6,0-6Z"/><path class="cls-1" d="M332.82,121.19a1.32,1.32,0,0,1-2.64,0,1.32,1.32,0,0,1,2.64,0c.21,3.84,6.21,3.86,6,0a7.32,7.32,0,1,0-7.56,7.31,7.46,7.46,0,0,0,7.56-7.31C339,117.33,333,117.34,332.82,121.19Z"/><path class="cls-1" d="M339.62,135.81h-8c-3.86,0-3.87,6,0,6h8c3.86,0,3.87-6,0-6Z"/><path class="cls-1" d="M329,139.26a1.32,1.32,0,0,1-2.64,0,1.32,1.32,0,0,1,2.64,0c.21,3.84,6.21,3.86,6,0a7.32,7.32,0,1,0-7.56,7.31,7.46,7.46,0,0,0,7.56-7.31C335.23,135.4,329.23,135.42,329,139.26Z"/><path class="cls-1" d="M345.54,367.13v52.31a3,3,0,0,0,3,3H373a3,3,0,0,0,3-3V381.93c0-3.86-6-3.87-6,0v37.51l3-3H348.54l3,3V367.13c0-3.86-6-3.87-6,0Z"/></g></svg>