<svg xmlns="http://www.w3.org/2000/svg" viewBox="0 0 689.84 620"><defs><style>.cls-1{fill:#93278f;}</style></defs><title>Artboard 17 copy 2</title><g id="drum"><path class="cls-1" d="M215.87,344.79c12.5,23.84,31.24,44.5,56.23,55.32,36,15.6,82.62,7.1,106.59-25.2,34.88-47,9.15-120.69-46-138.24-31.5-10-67-.94-91.53,20.64-14.43,12.72-23.33,30.11-26.38,50-5.66,37,7.73,79.11,39.26,100.91,18.87,13,45.07,20.5,68.09,18.31,37-3.51,70.48-21.56,105.63-31.83,31.78-9.29,65.62,2.21,90.24,23.08,1.52,1.29,3,2.6,4.44,4,3.46,3.48,9.08-.95,6.73-5.19L454.41,281.48l-10.61-19.2c-2.51-4.53-8.57-1.22-7.83,3.3,3.06,18.85.22,44.57-9.74,62.85-11.17,20.5-35.08,33.3-53.89,46-6.19,4.18-12.4,8.33-18.76,12.26-2.29,1.42-4.6,2.83-7,4.12-.84.46-3.9,1.82-3.2,1.73-5.39.71-5.46,9.29,0,8.57,9.34-1.24,19.07-9.83,26.63-14.85,11.53-7.65,22.89-15.55,34.18-23.54,9.83-7,19.06-14,25.88-24.17,9.1-13.56,13.41-29.78,14.86-45.91a118.18,118.18,0,0,0-.74-29.35l-7.83,3.3L511.15,401.8,521.77,421l6.73-5.19c-13.66-13.74-32.4-24-50.91-29.23a94.84,94.84,0,0,0-50-.67c-20.52,5.45-40.26,14.64-60.5,21.16-22.35,7.2-44.75,13.81-68.29,9.65-28.51-5-54.09-20.25-66.65-47.22-13.44-28.87-15.24-68.15,4.46-94.81.56-.76,3.28-4,1.94-2.45.42-.49.81-1,1.25-1.49a94.65,94.65,0,0,1,7.39-7.36,89,89,0,0,1,35.08-19c33-9.06,67,2,86.89,29.85,12.83,18,17.7,35.38,16.54,56.7-1.12,20.53-11,40.52-27.59,53-16.24,12.18-38.63,17-58.65,14.85C271.29,395.69,248,378,232.36,355.22a149,149,0,0,1-9.08-14.76c-2.56-4.89-10-.56-7.4,4.32Z"/><path class="cls-1" d="M248.59,199l-31.28,96.67c-1.7,5.26,6.57,7.51,8.26,2.28l31.28-96.67c1.7-5.26-6.57-7.51-8.26-2.28Z"/><path class="cls-1" d="M259.77,196.9l-10.9-3.63c-5.24-1.75-7.49,6.52-2.28,8.26l10.9,3.63c5.24,1.75,7.49-6.52,2.28-8.26Z"/></g></svg>