<svg xmlns="http://www.w3.org/2000/svg" viewBox="0 0 605.3 620"><defs><style>.cls-1{fill:#b3b3b3;}</style></defs><title>Artboard 18 copy 4</title><g id="drum"><path class="cls-1" d="M319.53,332.44,316.2,228,314,160.68l-.6-18.77a34.3,34.3,0,0,0-.12-3.62c.13.9-.74,1.92.35-.25,1.26-2.51,2.35-5.13,3.52-7.68,1.43-3.11,3.42-6.13,3.38-9.59-.05-5.09-.48-10.19-.73-15.27l-1.47-31A3.45,3.45,0,0,0,315,71.14H288.55a3.47,3.47,0,0,0-3.39,3.39l-1.9,26.08-1.17,16.11c-.16,2.24-.46,4.12.17,6.25a89.59,89.59,0,0,0,5.87,14.57c.62,1.21.53,1.31.46.74a8.1,8.1,0,0,1,0,1.36c-.29,5.13-.24,10.3-.36,15.44L285,291.61l-1,40.6c-.1,4.37,6.68,4.36,6.78,0l2.44-103.81,1.58-67.2.45-19.09c.11-4.64-1-7.34-2.83-11.85-1.13-2.81-2.07-5.83-3.44-8.53-1-2-.49.11-.38-1.75.3-5,.73-10,1.09-15l2.21-30.43-3.39,3.39H315l-3.39-3.39,1.24,26,.78,16.48c.06,1.26-.19,3.06.2,4.27a7.68,7.68,0,0,1,0,.79c-.35-1.69.66-1.88-.36.11-2.55,5-6.91,11.6-6.92,17.31,0,5.14.33,10.31.49,15.46l4.36,136.6,1.3,40.85c.14,4.35,6.92,4.37,6.78,0Z"/><path class="cls-1" d="M315.2,299.63a68,68,0,0,1,27.29,10.9c6.68,4.61,12.28,11,14.73,18.85,3.23,10.37,1,22.27-.45,32.8-.8,5.77-2.38,11.83-1.55,17.68.87,6.09,4.5,11.48,7.72,16.57,14.71,23.2,28,50.28,18.66,78.07a67.29,67.29,0,0,1-35.8,40.18c-23,10.7-51.79,12.46-75.92,4.8-16.74-5.31-34-15.87-43.6-31-12.17-19.15-8.61-47.93,1.22-67.16,6.07-11.88,14.17-22.78,19-35.3,3.5-9.15,2.43-17.36.62-26.74-2.09-10.85-6.66-27.65,1.34-37.14,9.51-11.29,25.54-19.93,39.95-22.49,4.29-.76,2.47-7.3-1.8-6.54-14.1,2.51-27.46,10.18-38.13,19.57-9.15,8.06-11.64,17.21-10.77,29.27.77,10.63,5.06,21.45,4.61,32.08-.45,10.79-7.49,20.95-12.71,30-7.62,13.19-14.3,25.8-16.48,41.09-1.71,12-1.27,24.63,2.48,36.18,5.46,16.83,20.32,29.46,35.5,37.57,23.47,12.54,50.6,14.45,76.35,8.91,21.37-4.59,41.1-15.53,52.84-34.43,13.45-21.64,14-46.57,4.68-70-5.1-12.76-12.58-23.85-19.41-35.67-3.1-5.38-4.16-9.72-3.37-15.87,2.81-21.86,8.25-45.3-9.87-62.07-9.4-8.7-22.63-14.6-35.28-16.62-4.27-.68-6.11,5.85-1.8,6.54Z"/><path class="cls-1" d="M270.89,428.61h63.3c4.36,0,4.37-6.78,0-6.78h-63.3c-4.36,0-4.37,6.78,0,6.78Z"/><path class="cls-1" d="M324.11,353.33c-.37,11.77-9.55,21.61-21.61,21.61a21.6,21.6,0,0,1-.79-43.19c12.36-.45,22,9.51,22.4,21.58.14,4.35,6.92,4.37,6.78,0-.48-15.44-12.58-28.39-28.39-28.39a28.39,28.39,0,0,0,0,56.78c15.81,0,27.91-12.95,28.39-28.39C331,349,324.25,349,324.11,353.33Z"/><path class="cls-1" d="M311.53,376.57c0,6.11-1.24,13.4.34,19.37,3,11.33,20.48,10.8,28.8,6.72,12.5-6.12,10.41-23.64,8.07-35-2.74-13.32-11.48-28.29-25-32.89-4.14-1.41-5.92,5.14-1.8,6.54,10.6,3.62,17.46,16.25,19.88,26.51,2.11,9,5.06,26-6.26,29.63-5.36,1.7-16.4,2.39-17.27-4.71-.64-5.21,0-10.87,0-16.12,0-4.36-6.78-4.37-6.78,0Z"/><path class="cls-1" d="M317.27,119.75H326c4.36,0,4.37-6.78,0-6.78h-8.77c-4.36,0-4.37,6.78,0,6.78Z"/><path class="cls-1" d="M331.5,116.36a1,1,0,0,1-2.07,0,1,1,0,0,1,2.07,0c.23,4.34,7,4.37,6.78,0a7.82,7.82,0,1,0-8.06,7.81,8,8,0,0,0,8.06-7.81C338.52,112,331.74,112,331.5,116.36Z"/><path class="cls-1" d="M317.27,103.26H326c4.36,0,4.37-6.78,0-6.78h-8.77c-4.36,0-4.37,6.78,0,6.78Z"/><path class="cls-1" d="M331.5,99.87a1,1,0,0,1-2.07,0,1,1,0,0,1,2.07,0c.23,4.34,7,4.37,6.78,0a7.82,7.82,0,1,0-8.06,7.81,8,8,0,0,0,8.06-7.81C338.52,95.51,331.74,95.52,331.5,99.87Z"/><path class="cls-1" d="M317.23,86.78H326c4.36,0,4.37-6.78,0-6.78h-8.77c-4.36,0-4.37,6.78,0,6.78Z"/><path class="cls-1" d="M331.46,83.39a1,1,0,0,1-2.07,0,1,1,0,0,1,2.07,0c.23,4.34,7,4.37,6.78,0a7.82,7.82,0,1,0-8.06,7.81,8,8,0,0,0,8.06-7.81C338.48,79,331.69,79,331.46,83.39Z"/><path class="cls-1" d="M284.27,112.87H275.5c-4.36,0-4.37,6.78,0,6.78h8.77c4.36,0,4.37-6.78,0-6.78Z"/><path class="cls-1" d="M263.25,116.26a7.82,7.82,0,1,0,8.06-7.81,8,8,0,0,0-8.06,7.81c-.23,4.36,6.55,4.35,6.78,0a1,1,0,0,1,2.07,0,1,1,0,0,1-2.07,0C269.8,111.92,263,111.89,263.25,116.26Z"/><path class="cls-1" d="M284.27,96.39H275.5c-4.36,0-4.37,6.78,0,6.78h8.77c4.36,0,4.37-6.78,0-6.78Z"/><path class="cls-1" d="M263.25,99.78A7.82,7.82,0,1,0,271.31,92a8,8,0,0,0-8.06,7.81c-.23,4.36,6.55,4.35,6.78,0a1,1,0,0,1,2.07,0,1,1,0,0,1-2.07,0C269.8,95.44,263,95.41,263.25,99.78Z"/><path class="cls-1" d="M284.31,79.9h-8.77c-4.36,0-4.37,6.78,0,6.78h8.77c4.36,0,4.37-6.78,0-6.78Z"/><path class="cls-1" d="M263.29,83.29a7.82,7.82,0,1,0,8.06-7.81,8,8,0,0,0-8.06,7.81c-.23,4.36,6.55,4.35,6.78,0a1,1,0,0,1,2.07,0,1,1,0,0,1-2.07,0C269.84,79,263.06,78.93,263.29,83.29Z"/></g></svg>