<svg xmlns="http://www.w3.org/2000/svg" viewBox="0 0 605.3 620"><defs><style>.cls-1{fill:#662d91;}</style></defs><title>Artboard 18 copy</title><g id="drum"><path class="cls-1" d="M223,192.68c3.66-4.17,10.07-4,15.06-.3,8.63,6.48,13.63,18.06,17.59,27.69s7.85,18.2,14.88,25.85c24,26.15,65.76,31.38,99.17,26.07A82.17,82.17,0,0,0,389,266.79c4.88-2.07,9.5-4.74,14.31-7,3.55-1.65,7.26-2.73,10.84-4.22.07,0,1-.13,1-.12-.41.63-1.79-2.57-1.83-2.57a3.48,3.48,0,0,1-.77,1.1,9.69,9.69,0,0,0-.92,1.11c-1.56,1.92-3.14,3.82-4.71,5.73q-23.33,28.36-46.84,56.57-33.42,40.1-67.4,79.74c-17.6,20.43-35.11,41.16-54.19,60.24-2.49,2.49-5,5-7.72,7.23a8.7,8.7,0,0,1-2.16,1.58c-.53.28-.81.31-.26.2a3.48,3.48,0,0,1-2.38-.18c-2.66-1.31-3.33-6-3.76-8.51a77.1,77.1,0,0,1-.77-13.61c0-5,.34-10.07.37-15.11.11-21.12.33-42.24.52-63.35q.44-51.33.9-102.65.31-34.42.62-68.85l0-3.59c0-3.86-6-3.87-6,0q-.24,26.68-.48,53.35-.47,52.81-.93,105.62-.33,38-.64,76.08c-.08,11.19-1.35,22.62.59,33.69,1.09,6.2,4.35,14.07,12,13.16,2.56-.3,4.42-1.81,6.37-3.41,6.83-5.6,12.84-12.33,18.83-18.78,9.95-10.7,19.62-21.65,29.23-32.65,23.56-27,46.66-54.35,69.65-81.81q27.4-32.74,54.54-65.72c3.3-4,6.68-8,9.9-12,2.33-2.95,3.85-8.19-1.63-8.6-2.63-.2-5.52,1.12-7.9,2.06-5.67,2.25-11.16,5-16.59,7.76-13.72,7-29.87,8.61-45.07,8.45-19.24-.21-39.27-4-56-14A63.62,63.62,0,0,1,269,234.24c-6.88-10.54-9.77-23.1-16.43-33.84C246.7,191,236,179.07,223.68,184.92a15.32,15.32,0,0,0-4.91,3.52C216.23,191.33,220.46,195.59,223,192.68Z"/><path class="cls-1" d="M231.5,187.55l-.42,94.84-.67,149.89-.15,34.47c0,3.86,6,3.87,6,0l.42-94.84L237.34,222l.15-34.47c0-3.86-6-3.87-6,0Z"/><path class="cls-1" d="M247.79,203.76V448.64c0,3.86,6,3.87,6,0V203.76c0-3.86-6-3.87-6,0Z"/><path class="cls-1" d="M264.08,238.06V429c0,3.86,6,3.87,6,0V238.06c0-3.86-6-3.87-6,0Z"/><path class="cls-1" d="M280.37,254.44V410.36c0,3.86,6,3.87,6,0V254.44c0-3.86-6-3.87-6,0Z"/><path class="cls-1" d="M296.67,263.76v128.4c0,3.86,6,3.87,6,0V263.76c0-3.86-6-3.87-6,0Z"/><path class="cls-1" d="M313,268.46V372.64c0,3.86,6,3.87,6,0V268.46c0-3.86-6-3.87-6,0Z"/><path class="cls-1" d="M329.25,270.26v82.6c0,3.86,6,3.87,6,0v-82.6c0-3.86-6-3.87-6,0Z"/><path class="cls-1" d="M345.54,270.72v63.41c0,3.86,6,3.87,6,0V270.72c0-3.86-6-3.87-6,0Z"/><path class="cls-1" d="M361.84,271.5v43c0,3.86,6,3.87,6,0v-43c0-3.86-6-3.87-6,0Z"/><path class="cls-1" d="M378.13,267.64v26.9c0,3.86,6,3.87,6,0v-26.9c0-3.86-6-3.87-6,0Z"/><path class="cls-1" d="M394.42,259.33v17.75c0,3.86,6,3.87,6,0V259.33c0-3.86-6-3.87-6,0Z"/><path class="cls-1" d="M184.28,187.55v296c0,3.86,6,3.87,6,0v-296c0-3.86-6-3.87-6,0v296c0,3.86,6,3.87,6,0v-296C190.28,183.69,184.28,183.69,184.28,187.55Z"/><path class="cls-1" d="M189.4,185.43l-7.85-7.53c-1.23-1.18-2.73-3.29-4.25-4.08-.72-.38-.89-1.6-.3.34.81,2.66.28.82.41.56.69-1.44,0-5,0-6.56q0-6.29-.07-12.58c-.07-16.23-.77-35.22.43-50.12.39-4.85-.87-8.4-5.48-10.57-.81-.38-4.85-1.08-5.19-1.77-.52-1.05,2.53-3.83,3.52-4.49,2.09-1.38,4.76-1.71,7.18-2.23a81.32,81.32,0,0,1,37.43.24c2.16.5,12.37,1.79,12.67,4.17.16,1.23-5.53,3.41-6.47,4.86-2.81,4.35.32,7.82,4.28,9.39,13.45,5.32,28.68,4.88,41.89,11.19,23.77,11.36,32.41,39.16,39.16,62.57,3.47,12,6.09,24.86,12.86,35.57s16.91,19.32,29,23.32a45.33,45.33,0,0,0,37-4c12.32-7.19,24.33-18.22,39-20.39,11.34-1.68,25.39,4.45,27.67,16.54a31.63,31.63,0,0,1-.77,13.46c-.32,1.27-.69,2.53-1.14,3.77-.34.95-.26.59,0,.16-9.48,18.74-20.89,36.73-31.27,55l-58.57,103-40.18,70.64c-1.12,2-2.52,4-2.91,6.26-2,11.42,11.64,10.21,17.62,14.88,6.68,5.21-5.8,8-8.55,8.92l-23,7.49-54,17.58c-4.25,1.38-8.48,2.85-12.75,4.15-5.45,1.66-11.69,1.27-17.33,1.51l-28.88,1.23c-2.38.1-4.78.28-7.17.31-4.94,0-8.78-1.65-13.06-3.73-3.51-1.71-7.27-3.19-10.6-5.22-5.83-3.55-6.93-9.31-6.93-15.57,0-5.72-.47-11.45,4.07-15.84,2.85-2.75,6.68-3.59,10.33-4.74l21-6.6c3.67-1.16,2.1-7-1.6-5.79l-22.72,7.16c-10,3.14-16.9,9.39-17,20.54-.14,10.9.54,21.11,11.42,26.81,7.71,4,16.35,9.19,25.26,9,15.85-.4,31.78-1.1,47.61-2,4.57-.27,8.52-1.64,12.8-3l22.83-7.44,56.48-18.4c4.2-1.37,8.51-2.56,12.64-4.12,4.62-1.75,7.74-6.26,6.57-11.31s-5.63-6.73-10-8.39c-3.28-1.26-10.53-2.44-8.78-7.37a14.54,14.54,0,0,1,.84-1.47c1.53-3.07,3.41-6,5.11-9l20.76-36.49L411.1,328.15l42.7-75.07c5-8.81,6.67-20.51,2.56-30-4.58-10.53-17.65-16.4-28.72-16.09-13.93.39-26.71,9.46-37.91,16.8-6.76,4.43-13.29,8.57-21.45,9.79a39.64,39.64,0,0,1-20.48-2.53c-14.2-5.68-24.42-18.41-29.11-32.7-7.93-24.15-12.16-50.65-28.35-71.11-8.62-10.9-19.87-17.37-33.2-20.88-7.93-2.08-16-3.44-24-5.37-1-.25-6.36-1-6.85-2.21-.12-.28,2.2-.48,3.07-.84a7,7,0,0,0,3.11-2.45c9.31-13-21-16-27.75-16.95a64.89,64.89,0,0,0-17.51,0c-6.34.86-14.62,1.43-20,5-3.89,2.58-8.49,9.7-4.14,14,2.8,2.73,8.73,1.26,8.88,6.21.21,6.93-.6,14.11-.64,21.07-.07,10.71,0,21.41,0,32.12,0,5.79-.86,12.46.11,18.18.48,2.79,3.6,4.79,5.54,6.65l8.2,7.87c2.79,2.67,7-1.56,4.24-4.24Z"/></g></svg>