<svg xmlns="http://www.w3.org/2000/svg" viewBox="0 0 605.3 620"><defs><style>.cls-1{fill:#006837;}</style></defs><title>Artboard 18 copy 6</title><g id="microphone_mine" data-name="microphone mine"><path class="cls-1" d="M387,401.42c-.19-1.1-.24-.07,0-.43-.33.59-.39,1.43-.7,2.07-1.8,3.71-5.85,6.47-9.19,8.61-11.92,7.63-27.26,13.61-41.12,7.75-12.91-5.46-17.25-17.23-23.2-28.76-5.83-11.29-14.25-22.89-26.08-28.41-9.32-4.35-23.51-4.79-30.27,4.37-6.6,8.94-.68,20.45,6.77,26.71s16.36,6,22.3-2.18c5.16-7.07,5.33-13.49,4.65-21.84-.9-10.91-2.69-21.78-4.6-32.55q-1.17-6.6-2.48-13.16c-.34-1.68-1.37-5.28-1.28-6.22L280.3,320c7.6-5.5,8.16-18.53,10.23-27.29q4.4-18.65,8.93-37.28.69-2.85,1.38-5.7c.13-.52.24-1,.38-1.56,0-.16.07-.36.13-.52-.73,1.88-.08.68.52,0,2-2.39,1.66-5.35,3.36-7.9a44.41,44.41,0,0,0,5.26-9.29c2.77-7.43,4-13.78,1-21.48-4.7-12-19.83-20.28-32.38-15.9-9.05,3.16-17.56,13.12-18.78,22.78a37.53,37.53,0,0,0,2.23,17.29c.48,1.39,1,2.76,1.58,4.11a10,10,0,0,0,1.16,2.46c1,1.16.12-1.71.27-.41.18,1.5.06,3,.29,4.55-.06-.4-.07-.54,0,.16.79,8.38.14,17.09.08,25.49q-.13,17.76-.39,35.52c0,2.16-.23,4.39-.1,6.55.5,8,7.81,10,14.53,8.46,3.77-.83,2.17-6.62-1.6-5.79-4.25.94-6.77.13-6.91-4.15-.07-2.09.06-4.21.09-6.3q.17-12.66.29-25.33c.08-8.8.17-17.59.13-26.39,0-4.32.61-10.67-1.05-14.6-3.39-8-7.27-16.88-3.17-25.51,5-10.52,15.12-17.11,26.59-12.18a20.77,20.77,0,0,1,12.95,20.48c-.05,1.67.12.12-.12,1.2a54,54,0,0,1-2.17,6.51c-1.7,4.7-5.77,8.22-7.15,13-.77,2.68-2.21,4.64-2.89,7.44q-1.29,5.3-2.57,10.61Q288.68,274.49,285,290c-1,4.36-2.06,8.72-3.06,13.09-.77,3.39-1,8.57-3.53,11.05-1.23,1.22-2.49,1.29-2.64,3.44a8.1,8.1,0,0,0,.39,2.25c.59,2.74,1.17,5.47,1.7,8.22,1.85,9.49,3.51,19,4.84,28.59,1,7.31,3.19,16.58,1.55,23.94-1,4.43-5.23,11.46-10.45,11.37-4.89-.08-9.65-5.44-11.93-9.23-3.39-5.62-3.14-12.4,3.18-15.65,6.12-3.15,13.84-2.1,19.78.88,13.46,6.75,20.76,21.17,26.72,34.22,4.73,10.35,12.81,19.26,23.62,23.33,13.29,5,27.13.9,39.2-5.37,6.67-3.46,15.87-8.69,18.18-16.54a8.2,8.2,0,0,0,.29-3.8c-.67-3.8-6.45-2.19-5.79,1.6Z"/><path class="cls-1" d="M263.83,245.65c9.55,11.77,27.09,9.61,39.16,3.93,3.49-1.64.45-6.82-3-5.18-9.82,4.62-24.11,6.59-31.89-3-2.43-3-6.66,1.27-4.24,4.24Z"/><path class="cls-1" d="M257.08,218.5c13,19.31,40,16.22,58.25,7.85,3.51-1.61.46-6.78-3-5.18-12.06,5.53-26.42,8.83-39,2.95-4-1.89-9.16-5.86-11-8.64-2.14-3.19-7.34-.19-5.18,3Z"/></g></svg>