<svg xmlns="http://www.w3.org/2000/svg" viewBox="0 0 689.84 620"><defs><style>.cls-1{fill:#ff0;}</style></defs><title>Artboard 17 copy</title><g id="drum"><path class="cls-1" d="M238.36,136.34c13.33,4.67,27,9.15,40,14.86,9.49,4.18,21.08,12.05,22.37,23.31,1.31,11.42-.67,23.81-1.39,35.2-3.23,51.53-7.07,103-9.34,154.6-1,23.34-1.93,46.75-1.36,70.11a304.31,304.31,0,0,0,2.72,34.44c1.58,11.37,3.88,23.18,9.6,33.28,11.09,19.57,33,21.09,53.13,17.74,6.83-1.13,13.77-2.35,19.48-6.53a33.11,33.11,0,0,0,10.38-13.28,54.54,54.54,0,0,0,4.62-20.34c.7-19.2,1.06-38.4,2.15-57.58.76-13.41,1.61-26.88,3.41-40.2,1.06-7.84,3.21-26.28,14.86-24.95a9.42,9.42,0,0,1,3.75,1.18c3.37,2,6.18-3,3-5.18l-57.36-39.38-3,5.18c7.94,3.85,1.33,19.07-1.29,24.57-4.71,9.91-6.31,20.86-7.23,31.7-2.13,25.06.1,50.15.43,75.22,0,2.56.86,19.13-5.32,14.24-3.59-2.84-2.13-11.71-2.29-16.32-.44-13-1.23-25.89-2-38.83-2.45-43.4-5.19-86.79-7.93-130.17q-3.12-49.36-6.33-98.71c-.52-8.05-1.94-15.24-6-22.49-7-12.33-18.43-19.68-31.36-24.68-11.8-4.56-23.63-9.12-35.2-14.26-1.11-.49-2.22-1-3.31-1.51a3.05,3.05,0,0,0-4.1,1.08l-6.85,13.27c-1.77,3.43,3.41,6.46,5.18,3l6.85-13.27-4.1,1.08c5.16,2.53,10.55,4.64,15.86,6.82,15.45,6.34,33.84,10.49,45.63,23a43.37,43.37,0,0,1,8.92,14.14,41.35,41.35,0,0,1,1.58,5.09c.16.66.6,3.19.53,2.59.19,1.62.23,3.27.33,4.89q3.29,50.46,6.48,100.92c2.81,44.45,5.62,88.91,8.1,133.38.69,12.34,1.51,24.69,1.8,37,.16,6.62-.78,15.6,5.74,19.6,4.09,2.51,9,.49,11.6-3.17,1.6-2.23,1.83-4.86,2-7.55.74-10-.13-20.13-.5-30.09-.51-13.83-.94-27.68-.49-41.51.4-12.32,1.12-25.21,5.21-37,3.57-10.23,12.09-22.5,5.2-33.35a11.08,11.08,0,0,0-4.14-4,3,3,0,0,0-3,5.18l57.36,39.38,3-5.18a15.28,15.28,0,0,0-14.78-.27c-10.27,5.74-11.74,20.35-13.06,30.75-3.34,26.37-4.15,53.14-4.94,79.69-.4,13.37.7,27.77-7.27,39.41-7.79,11.37-24.44,12.64-37.13,12.84-9.67.15-19.64-1.76-26.76-8.77-7.44-7.32-10.62-18-12.72-27.94a231.24,231.24,0,0,1-4.26-38.06c-.94-22.52-.11-45.13.79-67.64,2.1-52.5,6-104.91,9.33-157.35.84-13,2.45-26.41,1.87-39.48-.95-21.46-24.31-29.9-41.35-36.33-8.47-3.2-17-6.33-25.51-9.32C236.3,129.28,234.73,135.07,238.36,136.34Z"/><path class="cls-1" d="M240.18,131l-21-9.11,1.08,4.1,6.86-15.81-4.1,1.08,21,9.11-1.08-4.1-6.86,15.81c-1.52,3.51,3.65,6.57,5.18,3l6.86-15.81c.58-1.34.55-3.4-1.08-4.1l-21-9.11c-1.34-.58-3.4-.55-4.1,1.08L215.06,123c-.58,1.34-.55,3.4,1.08,4.1l21,9.11C240.66,137.71,243.72,132.54,240.18,131Z"/><path class="cls-1" d="M220.24,123,203.41,100,200,104.44l23.69,7.13c3.71,1.11,5.29-4.67,1.6-5.79l-23.69-7.13c-2.34-.7-5,2.25-3.39,4.41L215.06,126c2.26,3.08,7.47.09,5.18-3Z"/></g></svg>