<svg xmlns="http://www.w3.org/2000/svg" viewBox="0 0 605.3 620"><defs><style>.cls-1{fill:red;}</style></defs><title>Artboard 18 copy 2</title><g id="all"><path class="cls-1" d="M177,349.38h-9.81c-4.93,0-4.94,7.66,0,7.66H177c4.93,0,4.94-7.66,0-7.66Z"/><path class="cls-1" d="M89,304.07V380.3c0,4.93,7.66,4.94,7.66,0V304.07c0-4.93-7.66-4.94-7.66,0Z"/><path class="cls-1" d="M173.12,306v75.24c0,4.93,7.66,4.94,7.66,0V306c0-4.93-7.66-4.94-7.66,0Z"/><path class="cls-1" d="M52.47,335.79a78.49,78.49,0,0,1,2.45-13.35c2.29-9.14,7.73-14.19,16.69-17.19,8.21-2.75,17.91-2.17,26.5-2.53q35.38-1.46,70.77-2.85,39.58-1.55,79.17-2.91c24.3-.8,49.13-.92,70.84-13.43,9.85-5.68,20.14-14.38,24.37-25.32l-7.53-1v84.3l7.14-1.93c-5.49-10.95-18.2-18.84-28.89-23.62-27.62-12.36-59.31-10.75-88.92-12-31.76-1.29-63.52-2.5-95.3-3.26-12.46-.3-24.93-.55-37.4-.49-10.49,0-21.79-.56-30.86,5.61-25.21,17.15-21.9,63.54,7,75.1,8.35,3.34,18,3,26.89,3.24,32.24.92,64.53.85,96.78.9q68.38.09,136.76-.32,64.93-.32,129.85-.84,39-.3,78-.66c8.87-.08,18.78.19,23.64-8.89a17,17,0,0,0-10.25-24.11c-5.06-1.39-10.88-1-16.1-1-47.94-.36-95.9-.18-143.84-.15q-94.86.06-189.72.23l-23.54,0c-4.93,0-4.94,7.67,0,7.66q78.62-.14,157.24-.22,82.65-.08,165.29,0c13.79,0,27.61-.11,41.4.19,3.14.07,6.56,0,9.36,1.53a9.37,9.37,0,0,1,2.57,13.64c-2.73,3.41-7.21,3.37-11.21,3.41q-29.37.28-58.73.52-57.77.47-115.54.82-66.37.39-132.74.53c-36.78.05-73.57.07-110.34-.37-11.47-.14-22.94-.28-34.4-.71-3.28-.12-6.57-.25-9.84-.52a16.88,16.88,0,0,1-4.56-.71A27.72,27.72,0,0,1,57.88,362c-8.9-14.89-7.78-37.45,6.58-48.75,8.28-6.52,20.2-5.3,30.18-5.31,26.81,0,53.63.93,80.43,1.86q44.2,1.53,88.38,3.51c23.52,1,50.29,5.5,67.49,23.22a29.11,29.11,0,0,1,5.33,6.94c1.75,3.48,7.14,1.71,7.14-1.93V257.2c0-4.56-6-4.88-7.53-1,.5-1.29-.36.75-.74,1.41a45.8,45.8,0,0,1-3.35,5.12,57.46,57.46,0,0,1-17.84,14.81c-22.43,12.42-48.68,11.18-73.49,12-49.34,1.68-98.67,3.69-148,5.74-11.67.48-23.22.77-33.33,7.56-10.82,7.27-13.46,20.62-14.33,32.94-.35,4.92,7.32,4.9,7.66,0Z"/><path class="cls-1" d="M248.57,381.28V353.1c0-4.93-7.66-4.94-7.66,0v28.18c0,4.93,7.66,4.94,7.66,0Z"/><path class="cls-1" d="M277.31,353.1v28.18c0,4.93,7.66,4.94,7.66,0V353.1c0-4.93-7.66-4.94-7.66,0Z"/><path class="cls-1" d="M164.59,357.36H146l3.83,3.83v-16L146,349.06h18.56l-3.83-3.83v16c0,4.93,7.66,4.94,7.66,0v-16a3.89,3.89,0,0,0-3.83-3.83H146a3.89,3.89,0,0,0-3.83,3.83v16A3.89,3.89,0,0,0,146,365h18.56C169.52,365,169.53,357.36,164.59,357.36Z"/><path class="cls-1" d="M149.86,345.23v-4.15a3.83,3.83,0,0,0-7.66,0v4.15a3.83,3.83,0,0,0,7.66,0Z"/><path class="cls-1" d="M142.2,361.19v3.51a3.83,3.83,0,0,0,7.66,0v-3.51a3.83,3.83,0,0,0-7.66,0Z"/></g></svg>