<svg xmlns="http://www.w3.org/2000/svg" viewBox="0 0 605.3 620"><defs><style>.cls-1{fill:#2e3192;}</style></defs><title>Artboard 18 copy 3</title><g id="all"><path class="cls-1" d="M585.23,256.45v96.44l6.66-1.8a69.81,69.81,0,0,0-52.67-31.45c-17.23-1.26-34.58-1.32-51.85-1.62-49.84-.86-99.69-1.06-149.53-1.19q-18.59,0-37.18-.06a3.62,3.62,0,0,0-3.57,3.57V418l3.57-3.57H281.61l3.57,3.57V320.35a3.62,3.62,0,0,0-3.57-3.57h-8.73a3.62,3.62,0,0,0-3.57,3.57V418l3.57-3.57H255.42L259,418V319.56a3.62,3.62,0,0,0-3.57-3.57h-9.53a3.62,3.62,0,0,0-3.57,3.57V418l3.57-3.57H227.64l3.57,3.57V318.76a3.64,3.64,0,0,0-3.57-3.57l-116.1-3.48-16.46-.49,3.57,3.57V302.89l-3.57,3.57L209,305.07l16.29-.2a3.63,3.63,0,0,0,3.57-3.57V288.6l-3.57,3.57h21.43l-3.57-3.57v9.53a3.62,3.62,0,0,0,3.57,3.57h6.75a3.62,3.62,0,0,0,3.57-3.57V288.2l-3.57,3.57h19.05l-3.57-3.57v9.53a3.62,3.62,0,0,0,3.57,3.57h7.94a3.62,3.62,0,0,0,3.57-3.57V288.2l-3.57,3.57h18.26l-3.57-3.57v9.92a3.62,3.62,0,0,0,3.57,3.57q53.22-1.07,106.43-2.38c43.44-1.06,87.3-.81,130.63-4.27,7.57-.61,14.63-3.55,21.58-6.52,13.6-5.79,31.83-15.06,34.93-31.13.87-4.49-6-6.42-6.89-1.9-2.75,14.26-20.45,22.26-32.49,27.2A96,96,0,0,1,539,287.53c-.88.21-.6.12-.49.11-.87.13-1.75.17-2.63.25-16.1,1.31-32.33,1.53-48.47,2-50.24,1.59-100.49,2.72-150.74,3.82q-19,.41-38,.8l3.57,3.57V288.2a3.62,3.62,0,0,0-3.57-3.57H280.42a3.62,3.62,0,0,0-3.57,3.57v9.53l3.57-3.57h-7.94l3.57,3.57V288.2a3.62,3.62,0,0,0-3.57-3.57H253.43a3.62,3.62,0,0,0-3.57,3.57v9.92l3.57-3.57h-6.75l3.57,3.57V288.6a3.62,3.62,0,0,0-3.57-3.57H225.25a3.62,3.62,0,0,0-3.57,3.57v12.7l3.57-3.57-113.89,1.39-16.29.2a3.63,3.63,0,0,0-3.57,3.57v11.91a3.64,3.64,0,0,0,3.57,3.57l116.1,3.48,16.46.49-3.57-3.57V418a3.62,3.62,0,0,0,3.57,3.57h18.26a3.62,3.62,0,0,0,3.57-3.57V319.56l-3.57,3.57h9.53l-3.57-3.57V418a3.62,3.62,0,0,0,3.57,3.57h17.46a3.62,3.62,0,0,0,3.57-3.57V320.35l-3.57,3.57h8.73L278,320.35V418a3.62,3.62,0,0,0,3.57,3.57h19.05a3.62,3.62,0,0,0,3.57-3.57V320.35l-3.57,3.57q47.78,0,95.57.3c45,.27,90.22,0,135.23,2.12,10.41.48,20.31,1.57,29.77,6.54s18.64,12.7,24.49,21.81c1.88,2.92,6.66,1.85,6.66-1.8V256.45C592.38,251.85,585.23,251.85,585.23,256.45Z"/><path class="cls-1" d="M238.35,288.6V269.15c0-4.6-7.14-4.6-7.14,0V288.6c0,4.6,7.14,4.6,7.14,0Z"/><path class="cls-1" d="M265.74,288.2V269.15c0-4.6-7.14-4.6-7.14,0V288.2c0,4.6,7.14,4.6,7.14,0Z"/><path class="cls-1" d="M293.52,288.2V269.15c0-4.6-7.14-4.6-7.14,0V288.2c0,4.6,7.14,4.6,7.14,0Z"/><path class="cls-1" d="M226,272.72H244.7c4.6,0,4.6-7.14,0-7.14H226c-4.6,0-4.6,7.14,0,7.14Z"/><path class="cls-1" d="M253.83,272.72h18.26c4.6,0,4.6-7.14,0-7.14H253.83c-4.6,0-4.6,7.14,0,7.14Z"/><path class="cls-1" d="M281.22,272.72h17.46c4.6,0,4.6-7.14,0-7.14H281.22c-4.6,0-4.6,7.14,0,7.14Z"/><path class="cls-1" d="M215,344.07c-.81,17.11-26.71,17.3-26.75,0s25.93-17.13,26.75,0c.22,4.58,7.36,4.6,7.14,0-.53-11.14-9-20.52-20.52-20.52a20.52,20.52,0,0,0,0,41c11.55,0,20-9.38,20.52-20.52C222.38,339.47,215.23,339.48,215,344.07Z"/><path class="cls-1" d="M337,344.76c-.79,14.72-23,14.85-23,0s22.19-14.72,23,0c.25,4.57,7.39,4.6,7.14,0-.54-10.1-8.09-18.63-18.63-18.63a18.62,18.62,0,0,0-.82,37.22c10.86.47,18.89-8.15,19.45-18.59C344.37,340.17,337.23,340.18,337,344.76Z"/><path class="cls-1" d="M95.08,305.27H39.71c-4.6,0-4.6,7.14,0,7.14H95.08c4.6,0,4.6-7.14,0-7.14Z"/><path class="cls-1" d="M39.71,319H16.49l3.57,3.57v-28l-3.57,3.57H39.71l-3.57-3.57v28c0,4.6,7.14,4.6,7.14,0v-28A3.62,3.62,0,0,0,39.71,291H16.49a3.62,3.62,0,0,0-3.57,3.57v28a3.62,3.62,0,0,0,3.57,3.57H39.71C44.31,326.1,44.31,319,39.71,319Z"/><path class="cls-1" d="M461.19,321.26c0,6.88.15,13.77,0,20.64-.37,17.05-13.83,28.39-30.35,28.25-4.6,0-4.6,7.11,0,7.14,16.78.14,32.07-9.65,36.36-26.46,2.38-9.36,1.13-20,1.13-29.58,0-4.6-7.14-4.6-7.14,0Z"/><path class="cls-1" d="M153.66,370.88c-8.42,1.74-19.42,1.21-27.47-3.06-7.74-4.11-11.81-11.69-12.92-20.21-1.37-10.56-.33-21.74-.31-32.39,0-4.6-7.14-4.6-7.14,0,0,19.79-4.4,46.6,16,58.32,9.84,5.66,22.79,6.5,33.78,4.23,4.5-.93,2.6-7.82-1.9-6.89Z"/><path class="cls-1" d="M227.64,357.44H178.49c-4,0-8.24-.3-12.15.88-5.51,1.65-11.76,6-14.31,11.27-3.31,6.85,1.09,13.13,6.51,17.22,9.69,7.31,21.9,5.38,33.35,5.38h35.76c4.6,0,4.6-7.14,0-7.14-18,0-36.18.64-54.2,0-4.83-.17-16.72-4.62-15.33-11.41,1.1-5.37,9.81-8.87,14.33-9,8.57-.34,17.21,0,25.79,0h29.42c4.6,0,4.6-7.14,0-7.14Z"/><path class="cls-1" d="M245.89,364.58H253c4.6,0,4.6-7.14,0-7.14h-7.14c-4.6,0-4.6,7.14,0,7.14Z"/><path class="cls-1" d="M272.88,364.58h8.73c4.6,0,4.6-7.14,0-7.14h-8.73c-4.6,0-4.6,7.14,0,7.14Z"/><path class="cls-1" d="M245.89,392.19H253c4.6,0,4.6-7.14,0-7.14h-7.14c-4.6,0-4.6,7.14,0,7.14Z"/><path class="cls-1" d="M273.28,392.19h8.33c4.6,0,4.6-7.14,0-7.14h-8.33c-4.6,0-4.6,7.14,0,7.14Z"/><path class="cls-1" d="M300.66,392.19H409.86c9.29,0,18-2.7,21.89-12.19,5.16-12.73-6.49-22.4-18.34-22.55-18.77-.25-37.55,0-56.32,0H300.66c-4.6,0-4.6,7.14,0,7.14H404.87c4.86,0,11.58-.94,15.94,1.59,10.47,6.07,2.42,18.44-7.17,18.87-1.5.07-3,0-4.52,0H300.66c-4.6,0-4.6,7.14,0,7.14Z"/></g></svg>