<svg xmlns="http://www.w3.org/2000/svg" viewBox="0 0 605.3 620"><defs><style>.cls-1{fill:#39b54a;}</style></defs><title>Artboard 18 copy 5</title><g id="drum"><path class="cls-1" d="M301.47,272c11.29.35,23.48,5.53,31,14,8.53,9.54,9.4,21.76,9.18,34-.16,9-.8,17.93-1,26.89a6.36,6.36,0,0,0,.67,3.41c.3.61,1.74,1.14.55.57.19.09-.14-.34.34.63l3.39-4.41a19.37,19.37,0,0,0-12.41-.31c-8.19,2.94-8.18,12-7.55,19.31.85,9.85,2.52,21.36,8.67,29.47,4.84,6.38,10.9,6,18.27,6,3.86,0,3.87-6,0-6h-.59a3.06,3.06,0,0,0-2.89,2.2c-1.62,6-4.28,13.67-1.7,19.64,4.24,9.83,7.73,19.83,6.85,30.75-2.31,28.79-34.08,40.56-58.9,41.48-3.85.14-3.87,6.14,0,6,25-.93,54.75-11.37,63-37.56,3.93-12.42,1.61-25.94-3.2-37.78-1.34-3.29-3.06-5.75-2.79-9a68.66,68.66,0,0,1,2.48-12l-2.89,2.2h.59c3.86,0,3.87-6,0-6-5.33,0-10.25.91-13.73-3.88-4.82-6.63-6.27-16.13-7.07-24.07-.52-5.13-2.21-14.13,4.67-15.5a15,15,0,0,1,7.55.79c2.66.92,4.46-2.24,3.39-4.41-.14-.29-1.57-2.74-2.07-2.47,1.28-.69,1,4.18,1.35.5,1-10.61,1-21.48,1-32.12.07-21.46-11.23-38.82-31.8-45.55A52.74,52.74,0,0,0,301.47,266c-3.86-.12-3.86,5.88,0,6Z"/><path class="cls-1" d="M307.75,372.94c6.62.13,5.41,10,5.29,14.56-.13,5.24-.51,10.87.39,16.08,1,5.88,5.36,10.22,11.45,10.48,4.88.2,9.53-2.7,8.42-8.09-.78-3.78-6.56-2.18-5.79,1.6-.06-.28,0,.09,0,.12-1.07,1-4,.33-5.17-.28-1.83-1-2.73-3.12-3-5.09-.68-4.23-.33-8.9-.26-13.16.15-8.5.76-22-11.26-22.21-3.86-.08-3.86,5.92,0,6Z"/><path class="cls-1" d="M327.43,406.11a.76.76,0,0,1,.76-.76c.27,0,.39.14.09,0,.11.05.67.44.45.23s.14.27.17.3q.1.28,0,0t0,.2c0,.26-.14.4,0,.09a3.41,3.41,0,0,1-.31.53c.27-.39-.1,0-.22.09s-.2.07,0,0,.15,0,0,0-.66-.15-.25,0a2.52,2.52,0,0,1-.53-.31c.35.26.05-.07-.09-.22s-.07-.2,0,0,0,.15,0-.2a3,3,0,0,0,6,0,5.24,5.24,0,1,0-5.36,5.23,5.34,5.34,0,0,0,5.36-5.23,3,3,0,0,0-3-3A3.07,3.07,0,0,0,327.43,406.11Z"/><path class="cls-1" d="M306.8,372.12a.76.76,0,0,1,.76-.76c.27,0,.39.14.09,0,.11.05.67.44.45.23s.14.27.17.3q.1.28,0,0t0,.2c0,.26-.14.4,0,.09a3.41,3.41,0,0,1-.31.53c.27-.39-.1,0-.22.09s-.2.07,0,0,.15,0,0,0-.66-.15-.25,0a2.52,2.52,0,0,1-.53-.31c.35.26.05-.07-.09-.22s-.07-.2,0,0,0,.15,0-.2a3,3,0,0,0,6,0,5.24,5.24,0,1,0-5.36,5.23,5.34,5.34,0,0,0,5.36-5.23,3,3,0,0,0-3-3A3.07,3.07,0,0,0,306.8,372.12Z"/><path class="cls-1" d="M272.88,367c-12,.24-11.41,13.71-11.26,22.21.07,4.23.42,8.84-.24,13a7.14,7.14,0,0,1-2.56,4.85c-1.16.84-4.16,1.74-5.45.77-.29-.22-.2-.43-.24-.25.78-3.77-5-5.38-5.79-1.6-1,5,3,8.11,7.68,8.13,6.38,0,11.12-4.35,12.18-10.52.85-4.95.51-10.28.4-15.26-.1-4.67-1.61-15.24,5.28-15.38,3.86-.08,3.87-6.08,0-6Z"/><path class="cls-1" d="M247.19,406.14a5.24,5.24,0,1,0,5.36-5.23,5.34,5.34,0,0,0-5.36,5.23,3,3,0,0,0,3,3,3.07,3.07,0,0,0,3-3,.76.76,0,0,1-.76.76c-.27,0-.39-.14-.09,0-.11-.05-.67-.44-.45-.23s-.14-.27-.17-.3q-.1-.28,0,0t0-.2c0-.26.14-.4,0-.09a3.41,3.41,0,0,1,.31-.53c-.27.39.1,0,.22-.09s.2-.07,0,0-.15,0,0,0,.66.15.25,0a2.52,2.52,0,0,1,.53.31c-.35-.26-.05.07.09.22s.07.2,0,0,0-.15,0,.2a3,3,0,0,0-6,0Z"/><path class="cls-1" d="M267.83,372.15a5.24,5.24,0,1,0,5.36-5.23,5.34,5.34,0,0,0-5.36,5.23,3,3,0,0,0,3,3,3.07,3.07,0,0,0,3-3,.76.76,0,0,1-.76.76c-.27,0-.39-.14-.09,0-.11-.05-.67-.44-.45-.23s-.14-.27-.17-.3q-.1-.28,0,0t0-.2c0-.26.14-.4,0-.09a3.41,3.41,0,0,1,.31-.53c-.27.39.1,0,.22-.09s.2-.07,0,0-.15,0,0,0,.66.15.25,0a2.52,2.52,0,0,1,.53.31c-.35-.26-.05.07.09.22s.07.2,0,0,0-.15,0,.2a3,3,0,0,0-6,0Z"/><path class="cls-1" d="M279.79,355.37l3.91-78.87,5.65-114L290,149.4a12.47,12.47,0,0,0,.11-2.15c-.51-3.75-4.61-6.11-4.51-10.08.07-2.78,3.36-7.09,6.43-7.07,3.3,0,7.17,4.37,7,7.65-.2,3.61-4.08,6-4.59,9.5-.34,2.37.17,5.19.25,7.57l3.5,105.93,2,59.63.7,21.29c.13,4-.16,8.21.4,12.13a14.71,14.71,0,0,1,.05,1.58l3-3H276.79c-3.86,0-3.87,6,0,6h27.51a3,3,0,0,0,3-3l-2.77-83.75-3.78-114.41c-.1-3,.32-6.63-.32-9.61-.24-1.11-.46,1-.2.76a26.94,26.94,0,0,0,3.11-5c3.29-6,1.05-11.76-3.68-16.11-10.23-9.4-24.64,5-18.51,16.11.79,1.44,1.82,3.74,3,4.83.85.77,0-1.64-.08-.55s-.11,2.25-.17,3.37l-5.17,104.31c-1.62,32.74-4,65.55-4.87,98.32,0,.59-.06,1.18-.09,1.78C273.6,359.23,279.6,359.22,279.79,355.37Z"/><path class="cls-1" d="M276.79,396.21H304.1c3.86,0,3.87-6,0-6H276.79c-3.86,0-3.87,6,0,6Z"/><path class="cls-1" d="M244.31,480a28,28,0,0,1,4.6-9.27c5.7-7.63,14.13-8.9,23.06-6.72a39.55,39.55,0,0,1,12.25,5.22c4.81,3.15,7.26,7.76,10.57,12.27a31.11,31.11,0,0,0,3.83,4.51c.07.07,1.6,1.1,1.69,1.43a4.89,4.89,0,0,1-1.68,1.19c-6.88,3.46-17.82,1.2-25,0-8.85-1.45-17.58-4-25.31-8.6-8.33-5-16.12-12.8-20.13-21.74-3.94-8.76-3.19-18.72-.53-27.71,1.57-5.29,5-10.18,6.29-15.46s-1.18-12.35-2.57-17.48a3.06,3.06,0,0,0-2.89-2.2h-.59c-3.86,0-3.87,6,0,6,7.38,0,13.43.41,18.27-6,6.15-8.11,7.82-19.62,8.67-29.47.63-7.29.64-16.37-7.55-19.31a19.38,19.38,0,0,0-12.41.31l3.39,4.41c.74-1.47-.44.44.32-.42,1.11-1.26,1.66-1.74,1.88-3.5.92-7.22-.69-15.43-1.1-22.63-.74-12.78-1.91-25.85,6.36-36.64,5.17-6.74,12.88-11.11,20.87-13.62A52.93,52.93,0,0,1,280.29,272c3.85-.15,3.87-6.15,0-6-12.27.46-25.37,5.21-34.5,13.43-18.67,16.81-12,43-11.31,65.18a10.13,10.13,0,0,0,0,2.74c.13.27.73-1.87,1-1.49-.38-.45-2.32,2.31-2.45,2.56-1.08,2.16.74,5.32,3.39,4.41a15.36,15.36,0,0,1,7.21-.86c7.19,1.17,5.54,10.3,5,15.57-.79,7.82-2.22,17-6.76,23.6-3.56,5.19-8.37,4.34-14,4.34v6h.59l-2.89-2.2c1.4,5.17,3.82,11.83,1.6,16.42-3.53,7.29-6.34,14.91-7.35,23-2.83,22.68,13.26,42.1,33.4,50.56,9.64,4,20.19,5.93,30.59,6.63,6.18.42,16.61,1.06,21.07-4.52,4-5-1.08-8.15-4-11.62-3.59-4.3-5.79-9.3-10.12-13a41.32,41.32,0,0,0-13.49-7.37c-10.23-3.53-21.78-3.62-30,4.18a33,33,0,0,0-8.8,14.9c-1,3.73,4.78,5.33,5.79,1.6Z"/><path class="cls-1" d="M297.57,156.87h7.75c3.86,0,3.87-6,0-6h-7.75c-3.86,0-3.87,6,0,6Z"/><path class="cls-1" d="M297.92,176.9h10.63c3.86,0,3.87-6,0-6H297.92c-3.86,0-3.87,6,0,6Z"/><path class="cls-1" d="M286.47,157.15h-9.68c-3.86,0-3.87,6,0,6h9.68c3.86,0,3.87-6,0-6Z"/><path class="cls-1" d="M285.56,179.2h-8.76c-3.86,0-3.87,6,0,6h8.76c3.86,0,3.87-6,0-6Z"/><path class="cls-1" d="M313.85,173.9c-.12,2.26-3.51,2.27-3.51,0s3.39-2.25,3.51,0c.21,3.84,6.21,3.86,6,0a7.75,7.75,0,1,0-8,7.74,7.9,7.9,0,0,0,8-7.74C320.06,170,314.06,170.05,313.85,173.9Z"/><path class="cls-1" d="M274.2,182.7c-.12,2.26-3.51,2.27-3.51,0s3.39-2.25,3.51,0c.21,3.84,6.21,3.86,6,0a7.75,7.75,0,1,0-8,7.74,7.9,7.9,0,0,0,8-7.74C280.41,178.84,274.4,178.86,274.2,182.7Z"/><path class="cls-1" d="M275,160.55c-.12,2.26-3.51,2.27-3.51,0s3.39-2.25,3.51,0c.21,3.84,6.21,3.86,6,0a7.75,7.75,0,1,0-8,7.74,7.9,7.9,0,0,0,8-7.74C281.21,156.69,275.21,156.7,275,160.55Z"/><path class="cls-1" d="M312.64,153.26c-.12,2.26-3.51,2.27-3.51,0s3.39-2.25,3.51,0c.21,3.84,6.21,3.86,6,0a7.75,7.75,0,1,0-8,7.74,7.9,7.9,0,0,0,8-7.74C318.84,149.41,312.84,149.42,312.64,153.26Z"/><path class="cls-1" d="M299.7,475.9c-3.06-9.46-1.73-21-.15-30.48,1.6-9.69,3.79-19.61,7.45-28.76.74-1.85-1.12-3.8-2.89-3.8H276.79a3,3,0,0,0-2.89,3.8c3.9,15.88,6.5,31.76,5.7,48.18-.19,3.86,5.81,3.85,6,0,.82-16.94-1.89-33.39-5.92-49.77l-2.89,3.8H304.1l-2.89-3.8c-4.12,10.32-6.48,21.58-8,32.53-1.34,9.47-2.29,20.56.73,29.9,1.18,3.66,7,2.09,5.79-1.6Z"/></g></svg>